<svg xmlns="http://www.w3.org/2000/svg" width="25" height="24" viewBox="0 0 25 24" fill="none">
  <path fill-rule="evenodd" clip-rule="evenodd" d="M18.9418 16.3898C20.5909 14.348 21.3681 11.7795 21.1152 9.20693C20.8624 6.63435 19.5986 4.25088 17.5809 2.54143C15.5633 0.831973 12.9432 -0.0750558 10.2539 0.00486632C7.56458 0.0847884 5.00797 1.14566 3.10419 2.97165C1.19875 4.79891 0.0905108 7.25518 0.0053032 9.83993C-0.0799044 12.4247 0.864337 14.9434 2.64561 16.8827C4.42688 18.8221 6.91111 20.0361 9.59208 20.2775C12.273 20.5189 14.949 19.7694 17.0745 18.1818L17.1314 18.239L22.7412 23.6278C22.8641 23.7458 23.0099 23.8394 23.1705 23.9033C23.331 23.9671 23.5031 24 23.6768 24C23.8506 24 24.0226 23.9671 24.1832 23.9033C24.3437 23.8394 24.4896 23.7458 24.6124 23.6278C24.7353 23.5098 24.8328 23.3697 24.8993 23.2155C24.9658 23.0614 25 22.8961 25 22.7292C25 22.5624 24.9658 22.3971 24.8993 22.2429C24.8328 22.0888 24.7353 21.9487 24.6124 21.8307L19.0013 16.4431C18.982 16.4248 18.9621 16.407 18.9418 16.3898ZM16.1964 4.76878C16.9431 5.47427 17.5369 6.31475 17.9436 7.24174C18.3504 8.16874 18.562 9.1639 18.5662 10.1698C18.5705 11.1758 18.3673 12.1725 17.9685 13.1027C17.5696 14.0328 16.9829 14.8779 16.2423 15.5892C15.5016 16.3005 14.6217 16.864 13.6532 17.247C12.6846 17.6301 11.6467 17.8252 10.5993 17.8211C9.55189 17.817 8.51567 17.6138 7.55043 17.2232C6.5852 16.8326 5.71005 16.2623 4.97545 15.5452C3.50743 14.1122 2.68849 12.1801 2.69701 10.1698C2.70554 8.15956 3.54083 6.23397 5.02096 4.81248C6.50108 3.39099 8.50612 2.58879 10.5993 2.5806C12.6925 2.57242 14.7043 3.35891 16.1964 4.76878Z" fill="#434343"/>
</svg>