<svg width="309" height="78" viewBox="0 0 412 104" fill="none" xmlns="http://www.w3.org/2000/svg">
<g filter="url(#filter0_d_252_86)">
<path d="M0.0976562 76V5.29688H50.5859V20.3359H18.6523V33.1289H47.9492V48.168H18.6523V60.9609H50.4883V76H0.0976562ZM79.0039 46.0195V76H60.5469V22.9727H78.0273V32.9336H78.6133C80.957 26.293 87.0117 22.2891 94.8242 22.2891C106.055 22.2891 113.379 30.4922 113.281 42.2109V76H94.8242V46.0195C94.9219 40.5508 91.9922 37.3281 87.0117 37.3281C82.1289 37.3281 79.0039 40.5508 79.0039 46.0195ZM153.809 40.0625C153.418 36.7422 150.293 34.6914 146.387 34.6914C142.871 34.6914 140.039 36.0586 140.137 38.4023C140.039 40.0625 141.309 41.5273 145.508 42.3086L156.055 44.2617C166.895 46.2148 172.07 50.8047 172.168 58.6172C172.07 69.8477 161.426 76.9766 146.875 76.9766C130.859 76.9766 121.582 69.8477 120.508 59.1055H138.867C139.453 62.5234 142.48 64.4766 146.973 64.4766C150.684 64.4766 153.32 63.1094 153.418 60.7656C153.32 58.6172 151.465 57.4453 147.168 56.6641L137.891 55.0039C127.148 53.0508 121.777 47.6797 121.777 39.4766C121.777 28.5391 131.055 22.2891 145.996 22.2891C161.035 22.2891 170.312 28.9297 170.801 40.0625H153.809ZM213.965 52.8555V22.9727H232.422V76H214.941V65.9414H214.355C212.012 72.6797 205.957 76.6836 198.047 76.6836C187.012 76.6836 179.688 68.4805 179.688 56.7617V22.9727H198.145V52.9531C198.145 58.3242 200.977 61.6445 205.957 61.6445C210.742 61.6445 214.062 58.4219 213.965 52.8555ZM242.383 76V22.9727H260.254V32.9336H260.84C262.793 25.6094 267.188 22.2891 272.949 22.2891C274.609 22.2891 276.27 22.4844 277.734 22.875V38.793C275.879 38.1094 272.754 37.8164 270.801 37.8164C265.039 37.8164 260.84 41.918 260.84 48.0703V76H242.383ZM284.082 76V22.9727H302.539V76H284.082ZM293.262 17.2109C288.184 17.2109 284.082 13.4023 284.082 8.71484C284.082 4.02734 288.184 0.21875 293.262 0.21875C298.34 0.21875 302.441 4.02734 302.441 8.71484C302.441 13.4023 298.34 17.2109 293.262 17.2109ZM343.652 22.9727V36.3516H333.887V76H315.43V36.3516H308.594V22.9727H315.43V21.1172C315.43 8.22656 322.754 1.97656 334.277 1.97656C338.379 1.97656 341.406 2.26953 344.531 2.95312V16.332C342.188 16.1367 340.625 16.0391 339.941 16.0391C336.23 16.0391 333.887 17.5039 333.887 21.1172V22.9727H343.652ZM361.719 95.9219C358.203 95.9219 355.078 95.8242 352.637 95.6289V81.8594C355.176 82.0547 357.52 82.0547 359.57 82.0547C362.207 82.0547 364.062 81.7617 365.137 79.2227L365.527 78.2461L346.875 22.9727H366.113L375 59.9844H375.586L384.668 22.9727H404.004L384.473 80.5898C381.543 89.3789 375.391 95.9219 361.719 95.9219Z" fill="url(#paint0_linear_252_86)"/>
</g>
<defs>
<filter id="filter0_d_252_86" x="0.0976562" y="0.21875" width="411.906" height="103.703" filterUnits="userSpaceOnUse" color-interpolation-filters="sRGB">
<feFlood flood-opacity="0" result="BackgroundImageFix"/>
<feColorMatrix in="SourceAlpha" type="matrix" values="0 0 0 0 0 0 0 0 0 0 0 0 0 0 0 0 0 0 127 0" result="hardAlpha"/>
<feOffset dx="4" dy="4"/>
<feGaussianBlur stdDeviation="2"/>
<feComposite in2="hardAlpha" operator="out"/>
<feColorMatrix type="matrix" values="0 0 0 0 0 0 0 0 0 0 0 0 0 0 0 0 0 0 0.25 0"/>
<feBlend mode="normal" in2="BackgroundImageFix" result="effect1_dropShadow_252_86"/>
<feBlend mode="normal" in="SourceGraphic" in2="effect1_dropShadow_252_86" result="shape"/>
</filter>
<linearGradient id="paint0_linear_252_86" x1="52.6112" y1="-0.993423" x2="352.223" y2="51.1922" gradientUnits="userSpaceOnUse">
<stop stop-color="#4077C9"/>
<stop offset="1" stop-color="#00D4AC"/>
</linearGradient>
</defs>
</svg>
