<svg width="151" height="44" viewBox="0 0 151 44" fill="none" xmlns="http://www.w3.org/2000/svg">
<g filter="url(#filter0_d_252_88)">
<path d="M9.96334 27.928C8.78734 27.928 7.65934 27.82 6.57934 27.604C5.52334 27.388 4.58734 26.98 3.77134 26.38C2.97934 25.756 2.34334 24.868 1.86334 23.716C1.40734 22.54 1.17934 21.004 1.17934 19.108C1.17934 17.404 1.40734 15.94 1.86334 14.716C2.31934 13.492 2.85934 12.52 3.48334 11.8C4.13134 11.08 4.71934 10.636 5.24734 10.468L5.06734 9.784H4.45534C3.35134 9.784 2.47534 9.436 1.82734 8.74C1.20334 8.02 0.879344 7.048 0.855344 5.824C0.831344 4.624 1.14334 3.664 1.79134 2.944C2.46334 2.224 3.35134 1.864 4.45534 1.864H17.3793C19.9473 1.864 21.2313 3.064 21.2313 5.464C21.2313 6.544 20.9193 7.408 20.2953 8.056C19.6713 8.704 18.6993 9.028 17.3793 9.028H9.92734C9.03934 9.028 8.59534 9.544 8.59534 10.576V13.276C9.79534 13.012 11.0433 12.7 12.3393 12.34C13.6593 11.98 14.9073 11.8 16.0833 11.8C17.2113 11.8 18.0513 12.052 18.6033 12.556C19.1793 13.036 19.4673 13.696 19.4673 14.536C19.4673 15.4 19.1793 16.084 18.6033 16.588C18.0513 17.068 17.2113 17.32 16.0833 17.344C14.9073 17.368 13.6593 17.2 12.3393 16.84C11.0193 16.48 9.75934 16.168 8.55934 15.904V20.62C8.55934 21.076 8.67934 21.4 8.91934 21.592C9.18334 21.76 9.59134 21.688 10.1433 21.376C11.3433 20.68 12.5193 20.128 13.6713 19.72C14.8233 19.288 15.9513 19.072 17.0553 19.072C18.6153 19.072 19.7913 19.48 20.5833 20.296C21.3993 21.112 21.8073 22.18 21.8073 23.5C21.8073 24.916 21.3753 26.008 20.5113 26.776C19.6713 27.544 18.3033 27.928 16.4073 27.928H9.96334ZM26.6046 28C25.5486 28 24.6966 27.688 24.0486 27.064C23.4246 26.416 23.1126 25.624 23.1126 24.688V12.772C23.1126 11.764 23.4126 10.912 24.0126 10.216C24.6126 9.52 25.4766 9.172 26.6046 9.172C27.7086 9.172 28.5486 9.52 29.1246 10.216C29.7006 10.912 29.9886 11.788 29.9886 12.844V14.644H30.6366C30.6366 13.276 30.8766 12.196 31.3566 11.404C31.8606 10.612 32.4966 10.048 33.2646 9.712C34.0326 9.352 34.8006 9.172 35.5686 9.172C37.4166 9.172 38.7726 9.844 39.6366 11.188C40.5006 12.508 40.9326 14.392 40.9326 16.84V24.688C40.9326 25.624 40.6206 26.416 39.9966 27.064C39.3726 27.688 38.5326 28 37.4766 28C36.3966 28 35.5326 27.688 34.8846 27.064C34.2606 26.416 33.9486 25.624 33.9486 24.688V18.316C33.9486 17.452 33.7806 16.78 33.4446 16.3C33.1326 15.82 32.6646 15.58 32.0406 15.58C31.3206 15.58 30.7926 15.844 30.4566 16.372C30.1446 16.9 29.9886 17.572 29.9886 18.388V24.688C29.9886 25.624 29.6886 26.416 29.0886 27.064C28.4886 27.688 27.6606 28 26.6046 28ZM51.8721 28.468C50.2161 28.468 48.6801 28.312 47.2641 28C45.8721 27.664 44.7561 27.148 43.9161 26.452C43.0761 25.732 42.6561 24.784 42.6561 23.608C42.6561 22.576 42.9681 21.724 43.5921 21.052C44.2161 20.38 45.0441 20.044 46.0761 20.044C46.7241 20.044 47.3721 20.152 48.0201 20.368C48.6921 20.56 49.4001 20.752 50.1441 20.944C50.8881 21.136 51.6921 21.232 52.5561 21.232C53.3241 21.232 53.8401 21.196 54.1041 21.124C54.3681 21.028 54.5001 20.86 54.5001 20.62C54.5001 20.332 54.3321 20.14 53.9961 20.044C53.6841 19.948 53.1441 19.828 52.3761 19.684L49.7841 19.18C48.7041 18.964 47.6481 18.688 46.6161 18.352C45.6081 17.992 44.7681 17.464 44.0961 16.768C43.4481 16.072 43.1241 15.124 43.1241 13.924C43.1241 12.292 43.8441 11.02 45.2841 10.108C46.7481 9.196 48.8601 8.74 51.6201 8.74C53.2041 8.74 54.6201 8.896 55.8681 9.208C57.1401 9.52 58.1481 9.988 58.8921 10.612C59.6361 11.212 60.0081 11.968 60.0081 12.88C60.0321 13.864 59.7681 14.656 59.2161 15.256C58.6641 15.856 57.9681 16.156 57.1281 16.156C56.5281 16.156 55.9161 16.084 55.2921 15.94C54.6921 15.772 54.0321 15.604 53.3121 15.436C52.6161 15.244 51.8121 15.136 50.9001 15.112C50.2521 15.064 49.7241 15.1 49.3161 15.22C48.9081 15.34 48.7041 15.532 48.7041 15.796C48.7041 16.084 48.9441 16.288 49.4241 16.408C49.9041 16.504 50.6241 16.636 51.5841 16.804L54.1401 17.272C55.7001 17.536 56.9361 17.872 57.8481 18.28C58.7841 18.664 59.4561 19.204 59.8641 19.9C60.2721 20.596 60.4761 21.556 60.4761 22.78C60.4761 24.052 60.1041 25.12 59.3601 25.984C58.6401 26.824 57.6321 27.448 56.3361 27.856C55.0401 28.264 53.5521 28.468 51.8721 28.468ZM68.0015 28C66.3215 28 64.9535 27.364 63.8975 26.092C62.8415 24.82 62.3015 23.032 62.2775 20.728L62.2415 12.412C62.2415 11.38 62.5535 10.576 63.1775 10C63.8255 9.4 64.7015 9.1 65.8055 9.1C66.8615 9.1 67.7135 9.4 68.3615 10C69.0095 10.576 69.3335 11.38 69.3335 12.412V19.936C69.3335 21.736 70.0415 22.636 71.4575 22.636C72.1535 22.636 72.6215 22.384 72.8615 21.88C73.1015 21.352 73.2215 20.68 73.2215 19.864V12.412C73.2215 11.476 73.5455 10.696 74.1935 10.072C74.8415 9.424 75.6815 9.1 76.7135 9.1C77.7935 9.1 78.6215 9.424 79.1975 10.072C79.7975 10.696 80.0975 11.476 80.0975 12.412V24.22C80.0975 25.372 79.8335 26.296 79.3055 26.992C78.8015 27.664 77.9735 28 76.8215 28C75.6935 28 74.8055 27.664 74.1575 26.992C73.5335 26.296 73.2215 25.372 73.2215 24.22V23.608H72.5735C72.5735 25 72.1535 26.08 71.3135 26.848C70.4975 27.616 69.3935 28 68.0015 28ZM85.5282 28C84.4002 28 83.5242 27.676 82.9002 27.028C82.2762 26.38 81.9642 25.564 81.9642 24.58V12.772C81.9642 11.74 82.2762 10.888 82.9002 10.216C83.5242 9.52 84.4002 9.172 85.5282 9.172C86.6562 9.172 87.5202 9.52 88.1202 10.216C88.7202 10.888 89.0202 11.716 89.0202 12.7V13.456H89.7042C89.8002 12.184 90.2802 11.14 91.1442 10.324C92.0082 9.508 93.0282 9.1 94.2042 9.1C95.3802 9.1 96.3042 9.46 96.9762 10.18C97.6722 10.9 98.0202 11.86 98.0202 13.06C98.0202 14.188 97.6962 15.124 97.0482 15.868C96.4002 16.612 95.5722 16.984 94.5642 16.984C93.7242 16.984 93.0162 16.792 92.4402 16.408C91.8882 16 91.4802 15.532 91.2162 15.004C90.4482 14.908 89.8842 14.992 89.5242 15.256C89.1882 15.496 89.0202 15.988 89.0202 16.732V24.58C89.0202 25.564 88.7202 26.38 88.1202 27.028C87.5202 27.676 86.6562 28 85.5282 28ZM99.1874 4.996C99.1874 3.964 99.4994 3.136 100.123 2.512C100.771 1.864 101.659 1.54 102.787 1.54C103.987 1.54 104.875 1.852 105.451 2.476C106.051 3.1 106.351 3.928 106.351 4.96C106.351 5.968 106.051 6.784 105.451 7.408C104.875 8.008 103.987 8.308 102.787 8.308C101.611 8.308 100.711 8.008 100.087 7.408C99.4874 6.784 99.1874 5.98 99.1874 4.996ZM102.787 28C101.659 28 100.819 27.688 100.267 27.064C99.7154 26.44 99.4394 25.66 99.4394 24.724V12.412C99.4394 11.38 99.7154 10.564 100.267 9.964C100.819 9.364 101.659 9.064 102.787 9.064C103.915 9.064 104.755 9.364 105.307 9.964C105.883 10.564 106.171 11.356 106.171 12.34V24.724C106.171 25.66 105.871 26.44 105.271 27.064C104.695 27.688 103.867 28 102.787 28ZM114.06 28C113.052 28 112.224 27.688 111.576 27.064C110.952 26.416 110.64 25.612 110.64 24.652V16.624C110.016 16.768 109.452 16.684 108.948 16.372C108.444 16.06 108.036 15.592 107.724 14.968C107.436 14.344 107.292 13.66 107.292 12.916C107.292 12.172 107.448 11.488 107.76 10.864C108.072 10.216 108.48 9.724 108.984 9.388C109.512 9.052 110.088 8.98 110.712 9.172C110.832 7.396 111.12 5.824 111.576 4.456C112.032 3.064 112.728 1.972 113.664 1.18C114.624 0.387998 115.872 -0.00800204 117.408 -0.00800204C118.728 -0.00800204 119.784 0.267998 120.576 0.819998C121.368 1.348 121.92 2.008 122.232 2.8C122.568 3.592 122.676 4.396 122.556 5.212C122.436 6.004 122.112 6.7 121.584 7.3C121.056 7.876 120.276 8.164 119.244 8.164C118.524 8.164 117.924 8.02 117.444 7.732C116.964 7.444 116.556 7.096 116.22 6.688C115.908 6.256 115.632 5.848 115.392 5.464C114.792 4.504 114.18 4.18 113.556 4.492C113.244 4.66 113.076 4.936 113.052 5.32C113.028 5.68 113.148 6.1 113.412 6.58L114.204 7.948C114.612 8.62 115.044 9.064 115.5 9.28C115.956 9.472 116.532 9.52 117.228 9.424L118.956 9.172C120.06 9.004 120.96 9.304 121.656 10.072C122.352 10.84 122.7 11.788 122.7 12.916C122.7 14.092 122.34 15.04 121.62 15.76C120.924 16.456 120.06 16.744 119.028 16.624L117.516 16.444V24.652C117.516 25.612 117.204 26.416 116.58 27.064C115.956 27.688 115.116 28 114.06 28ZM130.995 35.416C129.387 35.416 128.067 35.152 127.035 34.624C126.027 34.096 125.235 33.4 124.659 32.536C124.179 31.792 123.903 31.012 123.831 30.196C123.783 29.38 123.939 28.624 124.299 27.928C124.659 27.208 125.199 26.656 125.919 26.272C126.663 25.864 127.407 25.708 128.151 25.804C128.895 25.876 129.579 26.152 130.203 26.632C130.827 27.088 131.307 27.688 131.643 28.432C132.003 29.224 132.363 29.8 132.723 30.16C133.107 30.544 133.599 30.628 134.199 30.412C134.775 30.22 134.979 29.692 134.811 28.828C134.667 27.964 134.355 26.944 133.875 25.768H132.543C131.511 25.768 130.479 25.396 129.447 24.652C128.415 23.908 127.551 22.732 126.855 21.124L123.903 14.284C123.447 13.204 123.399 12.208 123.759 11.296C124.143 10.384 124.827 9.724 125.811 9.316C126.723 8.908 127.623 8.884 128.511 9.244C129.399 9.604 130.095 10.372 130.599 11.548L133.335 17.92C133.791 18.952 134.283 19.696 134.811 20.152C135.363 20.608 135.939 20.68 136.539 20.368C137.067 20.08 137.355 19.684 137.403 19.18C137.451 18.652 137.199 18.016 136.647 17.272C136.407 16.936 136.119 16.564 135.783 16.156C135.471 15.748 135.183 15.28 134.919 14.752C134.679 14.2 134.559 13.588 134.559 12.916C134.559 11.788 134.943 10.864 135.711 10.144C136.479 9.4 137.487 9.028 138.735 9.028C139.863 9.028 140.763 9.388 141.435 10.108C142.131 10.828 142.479 11.764 142.479 12.916C142.479 13.732 142.383 14.632 142.191 15.616C141.999 16.6 141.783 17.512 141.543 18.352L138.951 27.82C138.567 29.236 138.063 30.52 137.439 31.672C136.815 32.824 135.987 33.736 134.955 34.408C133.923 35.08 132.603 35.416 130.995 35.416Z" fill="url(#paint0_linear_252_88)"/>
</g>
<defs>
<filter id="filter0_d_252_88" x="0.819336" y="-0.0078125" width="149.66" height="43.4238" filterUnits="userSpaceOnUse" color-interpolation-filters="sRGB">
<feFlood flood-opacity="0" result="BackgroundImageFix"/>
<feColorMatrix in="SourceAlpha" type="matrix" values="0 0 0 0 0 0 0 0 0 0 0 0 0 0 0 0 0 0 127 0" result="hardAlpha"/>
<feOffset dx="4" dy="4"/>
<feGaussianBlur stdDeviation="2"/>
<feComposite in2="hardAlpha" operator="out"/>
<feColorMatrix type="matrix" values="0 0 0 0 0 0 0 0 0 0 0 0 0 0 0 0 0 0 0.25 0"/>
<feBlend mode="normal" in2="BackgroundImageFix" result="effect1_dropShadow_252_88"/>
<feBlend mode="normal" in="SourceGraphic" in2="effect1_dropShadow_252_88" result="shape"/>
</filter>
<linearGradient id="paint0_linear_252_88" x1="20.0937" y1="-6.13158" x2="125.721" y2="8.55311" gradientUnits="userSpaceOnUse">
<stop stop-color="#4077C9"/>
<stop offset="1" stop-color="#00D4AC"/>
</linearGradient>
</defs>
</svg>
