<svg xmlns="http://www.w3.org/2000/svg" width="77" height="77" viewBox="0 0 77 77" fill="none">
  <path d="M27.271 48.1253H49.7293M27.271 57.7503H38.5002M60.9585 6.41699H16.0418C15.1909 6.41699 14.3749 6.75501 13.7732 7.35669C13.1715 7.95837 12.8335 8.77442 12.8335 9.62533V67.3753C12.8335 68.2262 13.1715 69.0423 13.7732 69.644C14.3749 70.2456 15.1909 70.5837 16.0418 70.5837H60.9585C61.8094 70.5837 62.6255 70.2456 63.2271 69.644C63.8288 69.0423 64.1668 68.2262 64.1668 67.3753V9.62533C64.1668 8.77442 63.8288 7.95837 63.2271 7.35669C62.6255 6.75501 61.8094 6.41699 60.9585 6.41699Z" stroke="#04CBA4" stroke-width="4" stroke-linecap="round" stroke-linejoin="round"/>
  <path d="M48.125 20.8545L35.2917 33.6878L28.875 27.2712" stroke="#04CBA4" stroke-width="4" stroke-linecap="round" stroke-linejoin="round"/>
</svg>